<?xml version="1.0" encoding="UTF-8"?>
<svg id="Layer_1" xmlns="http://www.w3.org/2000/svg" version="1.1" viewBox="0 0 512 512">
  <!-- Generator: Adobe Illustrator 29.3.0, SVG Export Plug-In . SVG Version: 2.1.0 Build 146)  -->
  <defs>
    <style>
      .st0 {
        fill: #fff;
      }
    </style>
  </defs>
  <path class="st0" d="M446.7,170.7C436.1,74.8,354.7,0,256,0S75.9,74.8,65.3,170.7H-.4l40.9,286.4c4.5,31.3,31.7,54.9,63.4,54.9h304.3c31.6,0,58.9-23.6,63.4-54.9l40.9-286.4h-65.7ZM256,42.7c75.1,0,137.2,55.8,147.6,128H108.4c10.4-72.2,72.6-128,147.6-128ZM429.3,451c-1.5,10.4-10.6,18.3-21.1,18.3H103.8c-10.5,0-19.6-7.9-21.1-18.3l-34-237.7h414.5l-34,237.7h0ZM277.3,426.7h-42.7v-170.7h42.7v170.7ZM384,426.7h-42.7v-170.7h42.7v170.7ZM170.7,426.7h-42.7v-170.7h42.7v170.7Z"/>
</svg>